PathFileType	4	(X/Y/Z)	 Patient4_HipIso.trc
DataRate	CameraRate	NumFrames	NumMarkers	Units	OrigDataRate	OrigDataStartFrame	OrigNumFrames
100	100	4	33	mm	100	338	2696
Frame#	Time	Sacral			L.Shoulder			Chest			R.Shoulder			Neck			R.ASIS			L.ASIS			R.Thigh.Superior			R.Thigh.Lateral			R.Thigh.Inferior			R.Patella			L.Thigh.Superior			L.Thigh.Lateral			L.Thigh.Inferior			L.Patella			L.Shank.Superior			L.Shank.Lateral			L.Shank.Inferior			R.Shank.Superior			R.Shank.Lateral			R.Shank.Inferior			R.Heel			R.Midfoot.Superior			R.Midfoot.Lateral			R.Toe			L.Heel			L.Midfoot.Lateral			L.Midfoot.Superior			L.Toe			L.Elbow			L.Wrist			R.Elbow			R.Wrist			
		X1	Y1	Z1	X2	Y2	Z2	X3	Y3	Z3	X4	Y4	Z4	X5	Y5	Z5	X6	Y6	Z6	X7	Y7	Z7	X8	Y8	Z8	X9	Y9	Z9	X10	Y10	Z10	X11	Y11	Z11	X12	Y12	Z12	X13	Y13	Z13	X14	Y14	Z14	X15	Y15	Z15	X16	Y16	Z16	X17	Y17	Z17	X18	Y18	Z18	X19	Y19	Z19	X20	Y20	Z20	X21	Y21	Z21	X22	Y22	Z22	X23	Y23	Z23	X24	Y24	Z24	X25	Y25	Z25	X26	Y26	Z26	X27	Y27	Z27	X28	Y28	Z28	X29	Y29	Z29	X30	Y30	Z30	X31	Y31	Z31	X32	Y32	Z32	X33	Y33	Z33	

338	3.3700	808.056150	1042.902500	585.042850	600.893070	1419.882900	849.377440	513.652770	1367.985600	676.529910	596.000550	1493.078900	534.429990	636.989380	1492.198700	718.730350	604.372250	1004.812900	430.117580	591.099670	938.225280	694.887270	560.637450	815.646120	387.439210	637.322880	726.443180	290.448000	548.558350	659.496580	342.600710	541.245850	581.311400	302.416050	562.092960	741.663700	646.377930	650.636540	637.921450	707.130430	574.870970	548.891360	642.876950	578.336790	483.514560	631.324460	601.124270	411.530240	639.034850	687.999820	297.133760	694.076780	643.298220	185.973130	619.444210	562.668150	498.539220	265.344880	636.704590	413.641750	178.949070	574.001160	311.164030	197.216750	683.293270	123.887150	179.566830	528.428410	215.912900	147.227340	613.007260	155.463270	99.135650	410.940400	200.765950	88.345720	774.074280	32.774560	585.560120	696.322080	29.553640	663.474730	614.749080	90.278370	633.221680	485.409550	39.889280	654.597660	690.470890	1185.632800	1064.157000	484.974580	1329.085700	1060.095500	747.620670	1336.169900	275.815640	769.713560	1257.667200	32.759160	
339	3.3800	807.631230	1042.655900	585.151120	601.315120	1420.980100	848.120120	513.856140	1368.616100	675.500490	596.272710	1493.087900	532.868650	637.468810	1492.805300	717.287480	603.455140	1004.036400	430.658110	591.098210	938.583440	695.564030	559.328740	813.476870	391.253390	634.785100	722.527160	295.390750	546.989810	655.957280	349.548980	539.325680	576.639160	310.565060	561.887940	741.549680	646.923830	650.401060	637.968320	708.012080	575.029850	548.904480	643.468020	578.509950	483.502900	631.817320	601.441830	411.791470	639.912110	688.082210	297.015170	694.385130	643.352780	185.998340	619.607120	562.144590	493.545810	274.902130	636.644780	408.407410	189.056300	575.976750	305.299560	209.790820	688.118470	119.551380	194.003110	531.584410	208.749220	161.794570	616.546810	148.864880	113.708270	413.732450	190.799970	104.438130	774.096070	32.761600	585.569950	696.314510	29.552760	663.464290	614.700130	90.300320	633.239930	485.414950	39.899340	654.601500	691.022830	1186.615800	1063.109500	485.318540	1329.817100	1060.005600	748.280820	1335.543300	274.999850	769.061460	1257.159200	31.808380	
340	3.3900	807.234920	1042.453400	585.205690	601.943910	1421.987100	846.846500	514.022770	1369.245600	674.608460	596.551270	1492.999900	531.354680	637.884700	1493.362300	715.736450	602.418270	1003.236600	431.438900	590.593810	939.156560	696.603330	557.916200	811.324650	395.173580	632.462830	718.614260	300.327940	545.358280	652.346370	356.714970	537.288640	572.047490	319.006410	561.747130	741.572750	647.548710	650.229190	637.984500	708.768740	575.043090	548.962460	644.007930	578.661070	483.554230	632.353390	601.477660	411.505370	640.032410	688.093200	296.881260	694.668150	643.412170	185.981600	619.830750	561.545650	488.682160	284.784300	636.640380	403.370820	199.451660	577.966130	299.496250	222.774050	693.149840	115.430370	208.428700	534.795720	201.532380	176.776540	620.470640	142.410340	128.487120	416.649960	180.927760	121.003240	774.056700	32.777330	585.575560	696.320070	29.549190	663.473020	614.710210	90.267730	633.274290	485.416050	39.903410	654.598020	691.684570	1187.553500	1061.982400	485.620760	1330.336400	1059.841200	749.088260	1334.759000	274.385190	768.372310	1256.816800	30.883660	
341	3.4000	806.794490	1042.212200	585.177920	602.389040	1423.074300	845.587400	514.240540	1369.892500	673.722290	596.782170	1492.902100	529.848270	638.380490	1493.869400	714.229610	601.219120	1002.419900	432.233760	590.325740	939.729310	697.526980	556.391170	809.043640	399.132260	629.841610	714.714840	305.638150	543.863950	648.789180	364.032260	535.343260	567.612730	327.593900	561.577210	741.592350	648.163940	650.084900	637.999330	709.486690	575.191100	548.977600	644.495540	578.831360	483.634190	632.904910	601.591670	411.419130	640.417600	688.109800	296.716370	694.872860	643.512510	185.957700	619.994260	561.200740	483.911960	294.667020	636.729610	398.454470	210.039370	580.174990	294.079100	235.716020	698.310610	111.664010	223.297730	538.130800	194.579760	191.979130	624.385860	136.331150	143.502930	419.822300	171.302340	137.822080	774.076540	32.774950	585.564580	696.325620	29.531300	663.485350	614.693300	90.348700	633.355770	485.397980	39.878650	654.598140	692.430360	1188.536700	1060.929600	485.834080	1330.654800	1059.625200	750.158140	1333.837000	273.949580	767.599300	1256.577100	29.954410	
